<svg id="Layer_2" enable-background="new 0 0 64 64" height="512" viewBox="0 0 64 64" width="512" xmlns="http://www.w3.org/2000/svg"><path d="m49 15c0 3.866-3.134 7-7 7s-7-3.134-7-7 7-13 7-13 7 9.134 7 13z" fill="#80d6fb"/><path d="m35 15c0 3.866 3.134 7 7 7 .277 0 .548-.02.817-.052.114-.633.183-1.282.183-1.948 0-3.016-2.644-7.78-5.244-11.738-1.469 2.458-2.756 5.081-2.756 6.738z" fill="#46bee8"/><path d="m15 15c0 3.866 3.134 7 7 7s7-3.134 7-7-7-13-7-13-7 9.134-7 13z" fill="#80d6fb"/><path d="m29 15c0 3.866-3.134 7-7 7-.277 0-.548-.02-.817-.052-.114-.633-.183-1.282-.183-1.948 0-3.016 2.644-7.78 5.244-11.738 1.469 2.458 2.756 5.081 2.756 6.738z" fill="#46bee8"/><path d="m42 20c0 5.523-4.477 10-10 10s-10-4.477-10-10 10-18 10-18 10 12.477 10 18z" fill="#80d6fb"/><path d="m2 62h8c0-6.602 2.912-12.52 7.517-16.552l-6.086-5.275c-5.803 5.471-9.431 13.223-9.431 21.827z" fill="#ffb0aa"/><path d="m52.57 40.173-6.086 5.275c4.604 4.032 7.516 9.95 7.516 16.552h8c0-8.604-3.628-16.356-9.43-21.827z" fill="#80d6fb"/><path d="m32 32c-7.964 0-15.198 3.109-20.57 8.173l6.086 5.275c3.871-3.389 8.935-5.448 14.484-5.448s10.613 2.059 14.483 5.448l6.086-5.275c-5.371-5.064-12.605-8.173-20.569-8.173z" fill="#edeff1"/><path d="m35.142 58.14-3.142-14.14-3.142 14.14c-1.125.917-1.858 2.296-1.858 3.86h10c0-1.564-.733-2.943-1.858-3.86z" fill="#6e83b7"/></svg>