<svg height="512" viewBox="0 0 60 60" width="512" xmlns="http://www.w3.org/2000/svg"><g id="023---Remote-Thermostat" fill="none"><g id="Icons" transform="translate(1 1)"><path id="Shape" d="m41 24c-9.3872402.0038629-16.9961371 7.6127598-17 17-.0010083 2.9222872.7533939 5.7952159 2.19 8.34 4.0589483 7.2095755 12.7189035 10.450025 20.5136142 7.6759439s12.4603462-10.7570118 11.0519101-18.9098854c-1.408436-8.1528736-8.4818892-14.1078376-16.7555243-14.1060585zm6.39 28.31c-.6769653.4865837-1.4459184.8302309-2.26 1.01-1.3303165.4505965-2.7254435.6803027-4.13.68-7.1769596-.0066157-12.9933843-5.8230404-13-13-.0035479-.3340373.0131493-.6679826.05-1-.0248285-.7489513.0939771-1.4957296.35-2.2 0-.02.01-.03.01-.04 1.4827799-5.7418487 6.6597859-9.7551592 12.59-9.76 2.0746539-.0054214 4.1197071.4921167 5.96 1.45.7373316.2885429 1.4102617.7201698 1.98 1.27 3.4507317 2.6569204 5.3386286 6.8676176 5.0267688 11.2115235-.3118599 4.3439059-2.7818883 8.2417367-6.5767688 10.3784765z" fill="#9e9e9e"/><path id="Shape" d="m41 24c-.481 0-.951.041-1.421.08 8.7557755.8142678 15.4435709 8.1746831 15.4175892 16.9682013-.0259817 8.7935181-6.7571549 16.1142851-15.5175892 16.8767987.5.044 1.005.075 1.517.075 9.3888407 0 17-7.6111593 17-17s-7.6111593-17-17-17z" fill="#707070"/><path id="Shape" d="m47.39 52.31c-.6769653.4865837-1.4459184.8302309-2.26 1.01.7859416-.2583623 1.5432527-.5968067 2.26-1.01z" fill="#f5f5f5"/><path id="Shape" d="m50.02 46.99c.0785195 2.1037956-.910769 4.1049419-2.63 5.32-.7167473.4131933-1.4740584.7516377-2.26 1.01-1.7487353.3938539-3.5824876.0502514-5.07-.95-1.4344994-.9238562-2.4415437-2.3814358-2.798156-4.050006s-.0333698-3.4104632.898156-4.839994c.1455037-.2206595.3058752-.4311471.48-.63.5674122.7265371 1.4381475 1.150836 2.36 1.15.298866-.0001552.595841-.0474012.88-.14.5084422.9936447 1.2665966 1.837953 2.2 2.45 1.7536792 1.1735039 3.9664855 1.4268218 5.94.68z" fill="#f5f5f5"/><path id="Shape" d="m47.006 47.373c-.0335871 1.9689898-1.0056505 3.8034994-2.616 4.937-.6987414.400699-1.4357264.7306673-2.2.985.9636312.231999 1.9675566.2405503 2.935.025.7859416-.2583623 1.5432527-.5968067 2.26-1.01 1.719231-1.2150581 2.7085195-3.2162044 2.63-5.32-.958471.3643362-1.9898208.4956113-3.009.383z" fill="#cfd8dc"/><path id="Shape" d="m45.13 53.32c-1.3303165.4505965-2.7254435.6803027-4.13.68-7.1769596-.0066157-12.9933843-5.8230404-13-13-.0035479-.3340373.0131493-.6679826.05-1 .0029468.7976822.1661788 1.5866367.48 2.32.5083738 1.1993889 1.3789773 2.2098484 2.49 2.89.7481818-3.24279 3.8010536-5.4154385 7.11-5.06-.0892672.2743789-.1331771.5614825-.13.85-.0007648.6710891.2247073 1.3228443.64 1.85-.1741248.1988529-.3344963.4093405-.48.63-.9315258 1.4295308-1.2547683 3.1714238-.898156 4.839994s1.3636566 3.1261498 2.798156 4.050006c1.4875124 1.0002514 3.3212647 1.3438539 5.07.95z" fill="#37474f"/><path id="Shape" d="m40.77 38.01v.01c-1.2417099.0807323-2.2985708.9334269-2.64 2.13-3.3089464-.3554385-6.3618182 1.81721-7.11 5.06-1.1110227-.6801516-1.9816262-1.6906111-2.49-2.89-.3138212-.7333633-.4770532-1.5223178-.48-2.32.0499261-.7424054.1670725-1.4787539.35-2.2 0-.02.01-.03.01-.04.6182814-1.7298922 1.9357207-3.1199177 3.63-3.83 1.564732-.6820037 3.3363418-.7142891 4.924884-.0897501 1.5885423.624539 2.8638133 1.8547127 3.545116 3.4197501.1059374.2428978.192865.4936507.26.75z" fill="#f5f5f5"/><path id="Shape" d="m44.64 29c-1.3062915-.0031993-2.5802191.4062775-3.64 1.17 1.7210028 1.228394 2.7388356 3.2155912 2.73 5.33.0003446 1.1155064-.2817543 2.21294-.82 3.19-.5361559-.4466848-1.2121536-.6908934-1.91-.69-.0768024-.0016614-.1536316.001679-.23.01-.067135-.2563493-.1540626-.5071022-.26-.75-.6813027-1.5650374-1.9565737-2.7952111-3.545116-3.4197501-1.5885422-.624539-3.360152-.5922536-4.924884.0897501-1.6942793.7100823-3.0117186 2.1001078-3.63 3.83 1.4827799-5.7418487 6.6597859-9.7551592 12.59-9.76 2.0746539-.0054214 4.1197071.4921167 5.96 1.45-.7372219-.2977213-1.5249316-.4505098-2.32-.45z" fill="#37474f"/><path id="Shape" d="m51 35.5c.0372082 3.5506079-2.8094236 6.4599014-6.36 6.5-.2678014.00029-.5352378-.0197677-.8-.06.1096656-.301099.1638743-.6195751.16-.94.0046799-.8952121-.396042-1.7444482-1.09-2.31.5382457-.97706.8203446-2.0744936.82-3.19.0088356-2.1144088-1.0089972-4.101606-2.73-5.33 1.7325461-1.2441229 3.9810261-1.5157514 5.96-.72.699636.3580998 1.3627615.7834379 1.98 1.27 1.3216731 1.2374202 2.0681281 2.9694856 2.06 4.78z" fill="#f5f5f5"/><path id="Shape" d="m48.94 30.72c-.6172385-.4865621-1.280364-.9119002-1.98-1.27-1.2054709-.4950936-2.5393611-.5842537-3.8-.254.2720424.0666967.5393081.1515536.8.254.699636.3580998 1.3627615.7834379 1.98 1.27 1.6201751 1.5269916 2.3546871 3.771863 1.9504854 5.9612218-.4042017 2.1893587-1.8918719 4.0239685-3.9504854 4.8717782-.022244.131614-.0556992.2610854-.1.387.2647622.0402323.5321986.06029.8.06 3.5505764-.0400986 6.3972082-2.9493921 6.36-6.5.0081281-1.8105144-.7383269-3.5425798-2.06-4.78z" fill="#cfd8dc"/><path id="Shape" d="m54 41c-.0025389 4.6861531-2.5283108 9.0078596-6.61 11.31 1.719231-1.2150581 2.7085195-3.2162044 2.63-5.32-1.9735145.7468218-4.1863208.4935039-5.94-.68-.9334034-.612047-1.6915578-1.4563553-2.2-2.45.93004-.2775192 1.6633658-.9958791 1.96-1.92.2647622.0402323.5321986.06029.8.06 3.5505764-.0400986 6.3972082-2.9493921 6.36-6.5.0081281-1.8105144-.7383269-3.5425798-2.06-4.78 3.1900114 2.4562175 5.0593174 6.2539378 5.06 10.28z" fill="#37474f"/><path id="Shape" d="m44 41c.0038743.3204249-.0503344.638901-.16.94-.2966342.9241209-1.02996 1.6424808-1.96 1.92-.284159.0925988-.581134.1398448-.88.14-1.6568542 0-3-1.3431458-3-3-.0031771-.2885175.0407328-.5756211.13-.85.3414292-1.1965731 1.3982901-2.0492677 2.64-2.13v-.01c.0763684-.008321.1531976-.0116614.23-.01 1.655485.0033011 2.9966989 1.344515 3 3z" fill="#9e9e9e"/><path id="Shape" d="m28 4v2h-7.17c-.5329123.00024132-1.0438267.21252266-1.42.59l-.82.82c-.3761733.37747734-.8870877.58975868-1.42.59h-6.34c-.5329123-.00024132-1.04382666-.21252266-1.42-.59l-.82-.82c-.37617334-.37747734-.88708775-.58975868-1.42-.59h-7.17v-2c0-2.209139 1.790861-4 4-4h20c2.209139 0 4 1.790861 4 4z" fill="#02a9f4"/><path id="Shape" d="m24 0h-3c2.209139 0 4 1.790861 4 4v2h3v-2c0-2.209139-1.790861-4-4-4z" fill="#0377bc"/><path id="Shape" d="m26.19 49.34c-.6482871.4325417-1.4106649.6622994-2.19.66h-20c-2.209139 0-4-1.790861-4-4v-5c0 2.209139 1.790861 4 4 4h20c.1571542.0002894.314158-.0097321.47-.03.3631737 1.5308696.9423104 3.0022808 1.72 4.37z" fill="#02a9f4"/><path id="Shape" d="m24.47 44.97c-.155842.0202679-.3128458.0302894-.47.03h-2.522c.3635132 1.5200466.9398709 2.9811401 1.712 4.34-.6482871.4325417-1.4106649.6622994-2.19.6600171l3-.0000171c.7793351.0022994 1.5417129-.2274583 2.19-.66-.7776896-1.3677192-1.3568263-2.8391304-1.72-4.37z" fill="#0377bc"/><path id="Shape" d="m28 30.05c-3.4811802 4.1295893-4.7916099 9.6682894-3.53 14.92-.155842.0202679-.3128458.0302894-.47.03h-20c-2.209139 0-4-1.790861-4-4v-35h7.17c.53291225.00024132 1.04382666.21252266 1.42.59l.82.82c.37617334.37747734.8870877.58975868 1.42.59h6.34c.5329123-.00024132 1.0438267-.21252266 1.42-.59l.82-.82c.3761733-.37747734.8870877-.58975868 1.42-.59h7.17z" fill="#00bcd4"/><path id="Shape" d="m28 6h-3v24.05c-3.4811802 4.1295893-4.7916099 9.6682894-3.53 14.92-.155842.0202679-.3128458.0302894-.47.03h3c.1571542.0002894.314158-.0097321.47-.03-1.2616099-5.2517106.0488198-10.7904107 3.53-14.92z" fill="#00838f"/><path id="Shape" d="m17 29.809v-13.809c0-1.6568542-1.3431458-3-3-3s-3 1.3431458-3 3v13.809c-2.35180809 1.357817-3.49841277 4.1259656-2.79555496 6.7490667.70285782 2.6231011 3.07992086 4.4470857 5.79555496 4.4470857s5.0926971-1.8239846 5.795555-4.4470857c.7028578-2.6231011-.4437469-5.3912497-2.795555-6.7490667z" fill="#f5f5f5"/><circle id="Oval" cx="14" cy="35" fill="#f44335" r="2"/></g><g id="Layer_9" fill="#000"><path id="Shape" d="m42 24c-4.4343009.001748-8.7102426 1.6486982-12 4.622v-23.622c-.0033061-2.76005315-2.2399468-4.99669388-5-5h-20c-2.76005315.00330612-4.99669388 2.23994685-5 5v42c.00330612 2.7600532 2.23994685 4.9966939 5 5h20c.625627-.0034947 1.2449107-.1256547 1.825-.36 4.631741 7.2889658 13.7892849 10.2585627 21.8171019 7.0748226s12.6609183-11.6225485 11.0379861-20.1047734c-1.6229321-8.4822249-9.0439994-14.6146693-17.680088-14.6100492zm-18 18c.0062752 1.0058191.0969265 2.0093387.271 3h-19.271c-1.65685425 0-3-1.3431458-3-3v-34.00000031l6.171.00000031c.26554132-.00020875.52026231.10520544.708.293l.828.828c.5613398.56495984 1.3255858.8815349 2.122.879h6.342c.7964142.0025349 1.5606602-.31404016 2.122-.879l.828-.828c.1877377-.18779456.4424587-.29320875.708-.293l6.171-.00000031v22.71100031c-2.5895127 3.1923626-4.0018863 7.1784342-4 11.289zm-19-40h20c1.6568542 0 3 1.34314575 3 3v1h-6.171c-.7964142-.00253492-1.5606602.31404016-2.122.879l-.828.828c-.1877377.18779456-.4424587.29320875-.708.293h-6.342c-.2655413.00020875-.5202623-.10520544-.708-.293l-.828-.828c-.56133975-.56495984-1.32558584-.88153492-2.122-.879h-6.171v-1c0-1.65685425 1.34314575-3 3-3zm20 48h-20c-1.65685425 0-3-1.3431458-3-3v-1.026c.86038886.6618067 1.91453073 1.0223232 3 1.026h19.721c.289365.98993.6641045 1.9528769 1.12 2.878-.2730211.0808375-.5562629.1219261-.841.122zm17 8c-8.836556 0-16-7.163444-16-16s7.163444-16 16-16 16 7.163444 16 16c-.0104696 8.8322157-7.1677843 15.9895304-16 16z"/><path id="Shape" d="m50.607 30.981c-.6706439-.6285235-1.4531544-1.1257755-2.307-1.466-3.7519117-1.907377-8.1644352-2.0188149-12.0078438-.3032571-3.8434087 1.7155579-6.706793 5.0746964-7.7921562 9.1412571-.3276748.8821748-.4818328 1.8193468-.454 2.76-.019.3-.045.588-.045.887-.0095818 4.5122305 2.1608516 8.7512462 5.8273628 11.3812675 3.6665111 2.6300212 8.3775657 3.3271583 12.6486372 1.8717325.8853597-.2143624 1.7227771-.59254 2.469-1.115 4.0515668-2.3071201 6.6842706-6.4842412 7.0178374-11.1346961.3335667-4.6504548-1.6760219-9.1605572-5.3568374-12.0223039zm-6.08 17.163c1.5850102 1.051878 3.5071158 1.4704873 5.386 1.173-.1354042.6397721-.3920218 1.2477114-.756 1.791-.3684303.5527834-.8388191 1.0302993-1.386 1.407-.5769385.3141346-1.1790157.5797175-1.8.794-.065.016-.125.045-.191.059-3.0085686.5842177-5.9297075-1.3523777-6.563-4.351-.2547822-1.2552341-.0413595-2.560314.6-3.669.6484129.4257844 1.4072865.6524383 2.183.652.128 0 .25-.026.375-.038.5593649.8678106 1.2920161 1.6106753 2.152 2.182zm-9.043-7.436c-1.7565618.7344257-3.1701997 2.1062653-3.957 3.84-.4554448-.4679282-.8202665-1.0161779-1.076-1.617-.2501531-.6005539-.3858173-1.2425844-.4-1.893.0554826-.6808847.1695719-1.3557174.341-2.017.018-.049.024-.1.044-.149 1.161528-2.815403 4.3601323-4.1863604 7.2-3.086 1.208353.4760284 2.1976266 1.3826548 2.777 2.545-.8238142.3638046-1.5011852.9943268-1.923 1.79-1.0315655-.0115916-2.0545784.1881784-3.006.587zm8.516 1.292c0 1.1045695-.8954305 2-2 2s-2-.8954305-2-2 .8954305-2 2-2 2 .8954305 2 2zm2-.019c-.0081549-.904249-.3257809-1.7784263-.9-2.477 1.1971518-2.7473087.6572957-5.9425036-1.376-8.144 1.2186451-.477042 2.5723549-.477042 3.791 0 .6367921.3325583 1.2425419.721443 1.81 1.162 1.0720099 1.0458131 1.6760481 2.4803588 1.675 3.978.028911 2.8556394-2.153716 5.2482351-5 5.481zm-4-11.981h.006c-.2.116-.4.223-.589.358-.263014.187685-.4191351.490887-.4191351.814s.1561211.626315.4191351.814c1.9851047 1.4230375 2.8020388 3.9795129 2.01 6.29-.2998467-.1120517-.6120935-.1875953-.93-.225-.023-.06-.045-.123-.07-.18-.7629236-1.8119376-2.2289045-3.2364149-4.062-3.947-1.6256988-.63999-3.4238244-.6923352-5.084-.148 2.2600109-2.4089529 5.4158647-3.7756812 8.719-3.776zm-11.057 16.661c.182.137.359.282.556.4.275468.1693835.615841.1951033.9136342.0690375.2977933-.1260658.5162429-.3883538.5863658-.7040375.3952682-1.7441264 1.6109955-3.1886878 3.262-3.876.5591972-.2317319 1.1521805-.3715355 1.756-.414.0203402.5722781.1650237 1.1332679.424 1.644-.035.05-.075.092-.11.144-1.0766288 1.612846-1.4613525 3.5901383-1.068 5.489.3530898 1.7433059 1.3164935 3.3034739 2.717 4.4-4.0324847-.6922683-7.4367512-3.3864493-9.037-7.152zm21.05 1.969c.012-.226.035-.45.026-.679-.0110653-.3227696-.1773312-.6203252-.4464154-.7989208-.2690841-.1785957-.607856-.2162423-.9095846-.1010792-2.2823047.8596779-4.8583491.1251154-6.344-1.809.4625838-.3351946.8484766-.7650628 1.132-1.261.064 0 .125.014.189.014 3.8487798-.0382241 7.0300813-3.0115775 7.328-6.849 1.6654564 3.7402778 1.2974282 8.0731971-.975 11.479z"/><path id="Shape" d="m18 6c.5522847 0 1-.44771525 1-1s-.4477153-1-1-1-1 .44771525-1 1 .4477153 1 1 1z"/><path id="Shape" d="m12 6h2c.5522847 0 1-.44771525 1-1s-.4477153-1-1-1h-2c-.5522847 0-1 .44771525-1 1s.4477153 1 1 1z"/><path id="Shape" d="m19 30.262v-13.262c0-2.209139-1.790861-4-4-4s-4 1.790861-4 4v13.262c-2.50996011 1.7477119-3.59465599 4.9226155-2.67877004 7.840757.91588594 2.9181414 3.62027424 4.9038056 6.67877004 4.9038056s5.7628841-1.9856642 6.67877-4.9038056c.915886-2.9181415-.1688099-6.0930451-2.67877-7.840757zm-4 10.738c-2.2601719-.0032211-4.2371424-1.5222696-4.8223601-3.7053654-.58521761-2.1830959.3668551-4.4873264 2.3223601-5.6206346.309084-.1784495.4996339-.5081008.5-.865v-13.809c0-1.1045695.8954305-2 2-2s2 .8954305 2 2v13.809c.0003661.3568992.190916.6865505.5.865 1.955505 1.1333082 2.9075777 3.4375387 2.3223601 5.6206346-.5852177 2.1830958-2.5621882 3.7021443-4.8223601 3.7053654z"/><path id="Shape" d="m16 33.184v-14.184c0-.5522847-.4477153-1-1-1s-1 .4477153-1 1v14.184c-1.3775467.4870363-2.2038721 1.8956662-1.9567957 3.3357331.2470764 1.4400668 1.4956868 2.492694 2.9567957 2.492694s2.7097193-1.0526272 2.9567957-2.492694c.2470764-1.4400669-.579249-2.8486968-1.9567957-3.3357331zm-1 3.816c-.5522847 0-1-.4477153-1-1s.4477153-1 1-1 1 .4477153 1 1-.4477153 1-1 1z"/></g></g></svg>